<?xml version="1.0" standalone="no"?>
<!DOCTYPE svg PUBLIC "-//W3C//DTD SVG 20010904//EN"
 "http://www.w3.org/TR/2001/REC-SVG-20010904/DTD/svg10.dtd">
<svg version="1.0" xmlns="http://www.w3.org/2000/svg"
 width="276.000000pt" height="239.000000pt" viewBox="0 0 276.000000 239.000000"
 preserveAspectRatio="xMidYMid meet">
<metadata>
Created by potrace 1.16, written by Peter Selinger 2001-2019
</metadata>
<g transform="translate(0.000000,239.000000) scale(0.100000,-0.100000)"
fill="#000000" stroke="none">
<path d="M0 1195 l0 -1195 1380 0 1380 0 0 1195 0 1195 -1380 0 -1380 0 0
-1195z m1356 1054 c-9 -19 -93 -232 -187 -474 -95 -242 -186 -469 -203 -505
-16 -36 -33 -74 -37 -85 -7 -19 -7 -19 -8 2 -1 12 -6 25 -12 29 -12 7 -8 81 6
119 6 17 5 17 -5 5 -9 -12 -10 -10 -5 13 4 19 2 26 -5 22 -13 -8 -13 11 0 35
7 13 7 21 0 25 -5 3 -10 11 -10 17 0 6 3 8 7 5 11 -11 34 14 24 27 -11 13 22
79 34 68 5 -4 5 -2 1 5 -3 6 11 40 32 75 21 35 55 95 77 133 21 39 43 73 49
77 6 4 8 8 4 8 -3 0 8 24 25 54 18 29 75 128 127 218 91 159 118 198 86 127z
m474 -757 c0 -5 14 -8 30 -7 17 1 28 0 26 -2 -2 -2 7 -16 20 -30 19 -21 22
-29 13 -47 -9 -17 -9 -19 2 -9 10 10 16 6 31 -18 10 -17 15 -35 12 -41 -4 -7
-2 -8 4 -4 7 4 17 -4 24 -21 7 -15 27 -50 44 -78 17 -27 128 -216 246 -420
119 -203 229 -394 247 -423 l31 -53 -761 2 -760 1 14 21 c28 43 352 599 370
632 23 46 30 45 10 -2 -19 -47 -35 -87 -34 -90 0 -2 -8 -23 -19 -49 -11 -25
-20 -50 -20 -55 0 -5 85 -9 200 -9 135 0 200 3 200 11 0 6 -22 48 -50 95 -27
47 -50 87 -50 90 0 2 -11 22 -24 43 -14 21 -22 42 -19 45 4 3 2 6 -4 6 -8 0
-35 46 -35 60 0 3 -6 12 -14 21 -8 9 -11 19 -7 22 3 4 1 7 -5 7 -7 0 -12 9
-12 21 0 11 -4 17 -10 14 -17 -11 -11 11 15 49 22 33 23 40 3 37 -5 0 -8 4 -8
9 0 13 17 13 25 0 10 -16 23 -12 30 10 5 15 15 20 41 20 19 0 33 4 30 9 -7 11
37 41 60 41 22 0 62 32 57 47 -2 6 1 14 6 18 6 3 11 1 11 -4 0 -6 7 -11 15
-11 8 0 15 7 15 15 0 8 -4 15 -10 15 -5 0 -10 5 -10 10 0 6 5 10 10 10 6 0 10
-4 10 -8z m-651 -419 c1 -6 -6 -18 -14 -27 -9 -8 -16 -19 -17 -23 0 -4 -5 -18
-11 -30 -8 -18 -13 -20 -24 -11 -7 6 -16 8 -20 4 -3 -3 -1 -6 5 -6 6 0 9 -10
8 -22 -4 -34 -48 -118 -58 -112 -5 4 -8 0 -6 -7 1 -8 -16 -45 -39 -84 -22 -38
-116 -203 -208 -365 -92 -162 -172 -299 -177 -305 -9 -10 -3 8 61 168 17 43
31 80 31 82 0 3 -101 5 -224 5 -124 0 -227 3 -229 8 -6 9 59 122 81 140 10 7
11 10 4 7 -11 -6 -11 -3 0 14 7 12 16 21 19 21 4 0 10 12 14 27 4 19 9 23 14
14 6 -10 10 -9 14 3 4 9 2 16 -4 16 -5 0 2 16 17 35 14 19 23 35 20 35 -4 0 5
16 20 35 14 19 30 32 35 29 5 -3 9 1 9 9 0 18 38 17 49 -1 6 -10 11 -5 20 17
7 16 10 34 7 39 -6 11 24 9 43 -3 10 -6 21 0 36 19 12 14 38 31 58 37 20 5 37
14 37 19 0 6 6 10 14 10 8 0 21 9 29 20 8 11 29 23 48 26 19 4 56 24 83 45 27
22 65 43 86 49 24 6 40 17 43 30 4 15 13 19 36 17 17 -1 31 -7 31 -14 0 -6 5
-15 12 -19 7 -5 8 -3 3 5 -4 7 1 30 11 51 15 31 20 35 26 22 4 -9 7 -22 7 -29z"/>
</g>
</svg>
